# xmcd
#
# Track frame offsets: 
#        150
#        29695
#        51850
#        67847
#        87552
#        113310
#        137152
#        161915
#        174585
#        183105
#        204090
#        207987
#        221800
#
# Disc length: 3342 seconds
#
# Revision: 0
# Processed by: cddbd v1.5.2PL0 Copyright (c) Steve Scherf et al.
# Submitted via: ExactAudioCopy v1.0b3
#
DISCID=b80d0c0d
DTITLE=Various Artist - Konzert beim Bundeskanzler - Preisträger und Stipendi
DTITLE=aten des DMW 1992
DYEAR=1992
DGENRE=Classical
TTITLE0=Cambini, Giuseppe (1746-?1825) - Bläserquintett Nr. 3 F-dur: 1
TTITLE0=Allegro maestoso
TTITLE1=Cambini, Giuseppe (1746-?1825) - Bläserquintett Nr. 3 F-dur: 2
TTITLE1=Larghetto sostenuto
TTITLE2=Cambini, Giuseppe (1746-?1825) - Bläserquintett Nr. 3 F-dur: 3
TTITLE2=Rondo. Allegretto con brio
TTITLE3=Bach, Johann Sebastian (1685-1750) - Sonata 1 in g [für Violin
TTITLE3=e solo], BWV 1001: 1. Adagio
TTITLE4=Bach, Johann Sebastian (1685-1750) - Sonata 1 in g [für Violin
TTITLE4=e solo], BWV 1001: 2. Fuga. Allegro
TTITLE5=Reger, Max (1873-1916) - Sonate B-dur für Brathsche und Klavie
TTITLE5=r, op. 107 Nr. 3: 2. Vivace - Andante - Adagio - Vivace - Quas
TTITLE5=i adagio
TTITLE6=Reger, Max (1873-1916) - Sonate B-dur für Brathsche und Klavie
TTITLE6=r, op. 107 Nr. 3: 3. Adagio
TTITLE7=Hindemith, Paul (1895-1963) - Kleine Kammermusik für fünf Bläs
TTITLE7=er, op. 24 Nr. 2: 1. Lustig. Mäßig schnelle Viertel
TTITLE8=Hindemith, Paul (1895-1963) - Kleine Kammermusik für fünf Bläs
TTITLE8=er, op. 24 Nr. 2: 2. Walzer. Durchweg sehr leise
TTITLE9=Hindemith, Paul (1895-1963) - Kleine Kammermusik für fünf Bläs
TTITLE9=er, op. 24 Nr. 2: 3. Ruhig und einfach. Achtel
TTITLE10=Hindemith, Paul (1895-1963) - Kleine Kammermusik für fünf Blä
TTITLE10=ser, op. 24 Nr. 2: 4. Schnelle Viertel
TTITLE11=Hindemith, Paul (1895-1963) - Kleine Kammermusik für fünf Blä
TTITLE11=ser, op. 24 Nr. 2: 5. Sehr lebhaft
TTITLE12=Tchaikovsky, Peter Ilyich (1840-1893) - Pezzo capriccioso, op
TTITLE12=62
EXTD=
EXTT0=
EXTT1=
EXTT2=
EXTT3=
EXTT4=
EXTT5=
EXTT6=
EXTT7=
EXTT8=
EXTT9=
EXTT10=
EXTT11=
EXTT12=
PLAYORDER=
